<?xml version="1.0" encoding="utf-8" standalone="no"?>
<!DOCTYPE svg PUBLIC "-//W3C//DTD SVG 1.1//EN" "http://www.w3.org/Graphics/SVG/1.1/DTD/svg11.dtd">
<?xml-stylesheet type="text/css" href="styles.css" ?>
<?xml-stylesheet type="text/css" href="fonts.css" ?>
<svg xmlns="http://www.w3.org/2000/svg" xmlns:xlink="http://www.w3.org/1999/xlink" width="500" height="360" version="1.1">
  <linearGradient id="lg1" x1="0%" y1="0%" x2="50%" y2="0%">
    <stop offset="0%" stop-color="#f9e079" stop-opacity="1"/>
    <stop offset="100%" stop-color="#fdee79" stop-opacity="1"/>
  </linearGradient>
  <linearGradient id="lg2" x1="0%" y1="0%" x2="50%" y2="0%">
    <stop offset="0%" stop-color="#71bdee" stop-opacity="1"/>
    <stop offset="100%" stop-color="#88cffb" stop-opacity="1"/>
  </linearGradient>
  <marker orient="auto" refY="0.0" refX="0.0" id="TriangleOutL" style="overflow:visible">
    <path d="M 5.77,0.0 L -2.88,5.0 L -2.88,-5.0 L 5.77,0.0 z " style="fill-rule:evenodd;stroke:#000000;stroke-width:1.0pt;marker-start:none;stroke-dasharray:0;" transform="scale(0.8)"/>
  </marker>
  <marker orient="auto" refY="0.0" refX="0.0" id="TriangleOutL2" style="overflow:visible">
    <path d="M 5.77,0.0 L -2.88,5.0 L -2.88,-5.0 L 5.77,0.0 z " style="fill-rule:evenodd;stroke:#000000;stroke-width:1.0pt;marker-start:none;stroke-dasharray:0;" transform="scale(0.8)"/>
	<circle cx="6" cy="0" r="1" class="line" style="fill:black;"/>
  </marker>
  <marker orient="auto" refY="0.0" refX="0.0" id="InL2" style="overflow:visible">
	<circle cx="0" cy="0" r="1" class="line" style="fill:black;"/>
  </marker>
  <filter id="i1" width="200%" height="200%">
    <feOffset result="offOut" in="SourceGraphic" dx="5" dy="5"/>
    <feColorMatrix result="matrixOut" in="offOut" type="matrix" values="0.00 0 0 0 0 0 0.00 0 0 0 0 0 0.0 0 0 0 0 0 0.5 0"/>
    <feGaussianBlur result="blurOut" in="matrixOut" stdDeviation="5"/>
    <feBlend in="SourceGraphic" in2="blurOut" mode="normal"/>
  </filter>
  <filter id="i2" width="200%" height="200%">
    <feOffset result="offOut" in="SourceGraphic" dx="2" dy="2"/>
    <feColorMatrix result="matrixOut" in="offOut" type="matrix" values="0.00 0 0 0 0 0 0.00 0 0 0 0 0 0.0 0 0 0 0 0 0.5 0"/>
    <feGaussianBlur result="blurOut" in="matrixOut" stdDeviation="2"/>
    <feBlend in="SourceGraphic" in2="blurOut" mode="normal"/>
  </filter>
  <rect x="-1000" y="-1000" width="2000" height="2000" class="background"/>
	
	<g transform="translate(50, 0)">
	<g transform="translate(20, 30)">
		<text x="50" y="14" class="code2">off-heap ByteBuffer</text>
		<path class="line"
			d="m0,0 240,0 0,20 -240,0 z"	/>
		<path class="line" style="stroke-dasharray:5, 2;opacity:0.4" d="
			m20,0 0,20 
			m20,0 0,-20
			m20,0 0,20 
			m20,0 0,-20
			m20,0 0,20 
			m20,0 0,-20
			m20,0 0,20 
			m20,0 0,-20
			m20,0 0,20 
			m20,0 0,-20
			m20,0 0,20 
			"/>		
	</g>

	<g transform="translate(100 120)">
		<circle cx="50" cy="50" r="100" style="stroke:black; stroke-width:1; fill:none; "/>
		<circle cx="50" cy="50" r="80" style="stroke:black; stroke-width:1; fill:none; "/>
		
		<path style="stroke:black; stroke-width:1;" d="m50,-50 0,20 m0,160 0,20 m80,-100 20,0 m-180,0 -20,0"/>
		<g transform="rotate(15 50 50)">
			<path style="stroke:black; stroke-width:1;" d="m50,-50 0,20 m0,160 0,20 m80,-100 20,0 m-180,0 -20,0"/>
		</g>
		<g transform="rotate(30 50 50)">
			<path style="stroke:black; stroke-width:1;" d="m50,-50 0,20 m0,160 0,20 m80,-100 20,0 m-180,0 -20,0"/>
		</g>
		<g transform="rotate(45 50 50)">
			<path style="stroke:black; stroke-width:1;" d="m50,-50 0,20 m0,160 0,20 m80,-100 20,0 m-180,0 -20,0"/>
		</g>
		<g transform="rotate(60 50 50)">
			<path style="stroke:black; stroke-width:1;" d="m50,-50 0,20 m0,160 0,20 m80,-100 20,0 m-180,0 -20,0"/>
		</g>
		<g transform="rotate(75 50 50)">
			<path style="stroke:black; stroke-width:1;" d="m50,-50 0,20 m0,160 0,20 m80,-100 20,0 m-180,0 -20,0"/>
		</g>
		
		<g transform="rotate(180 50 50)">
			<g transform="translate(50 -50)">
				<path style="fill:#176366;opacity:0.5;" d="m0,0 A 50,50 0 0 1 26,3 l-5,20 A 50,50 0 0 0 0,20"/>
			</g>
		</g>
		<g transform="rotate(195 50 50)">
			<g transform="translate(50 -50)">
				<path style="fill:#176366;opacity:0.5;" d="m0,0 A 50,50 0 0 1 26,3 l-5,20 A 50,50 0 0 0 0,20"/>
			</g>
		</g>
		<g transform="rotate(210 50 50)">
			<g transform="translate(50 -50)">
				<path style="fill:#176366;opacity:0.5;" d="m0,0 A 50,50 0 0 1 26,3 l-5,20 A 50,50 0 0 0 0,20"/>
			</g>
		</g>
		<g transform="rotate(225 50 50)">
			<g transform="translate(50 -50)">
				<path style="fill:#176366;opacity:0.5;" d="m0,0 A 50,50 0 0 1 26,3 l-5,20 A 50,50 0 0 0 0,20"/>
			</g>
		</g>
	</g>
	
	<path class="weak-link" d="m140,70 c0,-20 110,15 111,-13"/>
	<path class="weak-link" d="m160,70 c0,-35 -130,15 -130,-13"/>
	<text x="133" y="85" class="code2">N</text>
	<text x="156" y="84" class="code2">1</text>
	<text x="179" y="90" class="code2">2</text>
	<text x="201" y="103" class="code2">3</text>

  <g transform="translate(-20 20)">
    <g filter="url(#i2)" transform="translate(360 40)">
      <text x="-16" y="-10" class="code2">
        <tspan x="-40" y="-25">Application</tspan>
        <tspan x="-30" y="-10">Thread</tspan>
	  </text>
      <path class="arrow2" d="m0,0 l0,40 l-10,0 l20,20 l20,-20 l-10,0 l0,-40 z"/>
      <text class="code2">
        <tspan x="-30" y="70">append(...)</tspan>
	  </text>	 
    </g>
    <g filter="url(#i1)" transform="translate(310 130)">
      <rect x="0" y="-10" rx="20" ry="20" width="130" height="90" class="frame"/>
      <text x="20" y="0" class="code2">
        <tspan x="10" y="10">LocalLogEntry</tspan>
        <tspan x="30" y="30">message</tspan>
        <tspan x="30" y="50">thread name</tspan>
        <tspan x="30" y="70">etc</tspan>
      </text>
      <text class="code2">
        <tspan x="-145" y="60">commit()</tspan>
	  </text>	 
      <path class="link" style="marker-end:url(#TriangleOutL2);" d="m0,65 l-204,10"/>
    </g>
  </g>

    <g filter="url(#i1)" transform="translate(0 210)">
      <text x="-16" y="-10" class="code2">
        <tspan x="-25" y="-22">Appender</tspan>
		<tspan x="-18" y="-7">Thread</tspan>
	  </text>
      <path class="arrow1" d="m0,0 l0,40 l-10,0 l20,20 l20,-20 l-10,0 l0,-40 z"/>
      <text class="code2">
        <tspan x="-30" y="70">processing:</tspan>
        <tspan x="-30" y="85">apply pattern</tspan>
        <tspan x="-30" y="100">write to file, console etc</tspan>
	  </text>	 

	  <path class="link" style="marker-start:url(#InL2);" d="m138,48 l-80,5"/>
    </g>			
  </g>

  <g transform="translate(430, 350)">
	<g transform="translate(22, -20) scale(0.05)">
    <path d="M 264.62704,45.67985 L 320.93856,-55.341684 L 321.20626,-18.39565 L 439.71917,-18.663321 C 460.89567,-20.907926 479.46189,-29.515917 492.90718,-45.703612 C 449.99593,42.074998 437.6363,104.18491 348.60347,104.22236 L 321.20626,104.22236 L 320.93856,145.2735 L 264.62704,45.67985 z M 128.9798,105.11479 C 65.618201,85.84639 36.055796,7.7860213 7.07577,-47.220709 C 20.358449,-35.144225 45.215543,-17.857687 59.652937,-17.856242 C 87.342919,-17.791686 115.033,-17.739925 142.72302,-17.68168 L 226.61014,-17.68168 L 226.34238,104.75781 L 226.07467,105.11479 L 128.9798,105.11479 z M 2.5,-79.206629 L 42.995596,-161.8012 L 3.5060915,-183.49253 L 121.84047,-183.49253 L 179.04437,-79.615369 L 140.25008,-102.84417 C 127.80713,-76.56873 115.36419,-50.293292 102.92124,-24.017854 C 88.601045,-24.268303 74.280847,-24.518751 59.960649,-24.769199 C 32.037317,-31.279427 12.61125,-53.254123 2.5,-79.206629 z M 397.95406,-25.267233 L 345.65845,-121.64816 L 451.3206,-185.63434 L 502.45591,-83.185088 C 504.00423,-58.667382 464.41897,-24.549247 439.84931,-24.814661 L 397.95406,-25.267233 z M 88.64259,-250.78088 L 142.62664,-331.68677 C 194.98621,-351.18756 225.31619,-309.08831 244.45844,-282.5509 L 193.59076,-184.92061 L 88.64259,-250.78088 z M 293.18437,-207.23101 C 282.32654,-232.82854 267.81922,-262.10865 249.67783,-287.56701 C 233.43607,-310.35951 213.81186,-330.24553 198.94523,-339.13011 L 335.48497,-339.39778 C 360.00585,-337.19641 371.92036,-322.9011 384.92473,-303.3442 L 404.5578,-268.80769 L 434.90004,-288.17309 L 377.78547,-186.43755 L 254.632,-186.16987 L 293.18437,-207.23101 z " style="stroke:#000;stroke-width:2; fill:#000"/>
  </g>
	

	<text class="code2" style="font-family:Balthazar;font-size:20;">gflogger</text>	 
  </g>	

</svg>
